#define favicon_width 16
#define favicon_height 16
static unsigned char favicon_bits[] = {
   0x00, 0x00, 0x30, 0x00, 0xfc, 0x00, 0x64, 0x00, 0x86, 0x00, 0x07, 0x00,
   0xf7, 0x34, 0xa7, 0x44, 0xc5, 0x44, 0xfe, 0x44, 0x78, 0x44, 0x00, 0x24,
   0x00, 0x04, 0x00, 0x04, 0x00, 0x06, 0x00, 0x00 };
