#define icon_width 16
#define icon_height 16
static unsigned char icon_bits[] = {
   0x00, 0x00, 0xc0, 0x0f, 0xf0, 0x1f, 0x38, 0x10, 0x18, 0x00, 0x0c, 0x00,
   0x0c, 0x1f, 0x0c, 0x1f, 0x0c, 0x18, 0x0c, 0x18, 0x18, 0x18, 0x38, 0x18,
   0xf0, 0x0f, 0xc0, 0x07, 0x00, 0x00, 0x00, 0x00 };
